<svg xmlns="http://www.w3.org/2000/svg" viewBox="0 0 80 80" width="200" height="200">
	<g stroke-linecap="square" stroke-width="2" stroke="#000" fill="none">
		<!-- 0 .. 9 -->
		<g transform="translate(0,0)">
			<path d="M6,4h4v8h-4v-8"/>
		</g>
		<g transform="translate(16,0)">
			<path d="M8,4v8"/>
		</g>
		<g transform="translate(32,0)">
			<path d="M6,4h4v4h-4v4h4"/>
		</g>
		<g transform="translate(48,0)">
			<path d="M6,4h4v4M6,8h4v4h-4"/>
		</g>
		<g transform="translate(64,0)">
			<path d="M6,4v4h4M10,4v8"/>
		</g>
		<g transform="translate(0,16)">
			<path d="M10,4h-4v4h4v4h-4"/>
		</g>
		<g transform="translate(16,16)">
			<path d="M10,4h-4v8h4v-4h-4"/>
		</g>
		<g transform="translate(32,16)">
			<path d="M6,6v-2h4v8"/>
		</g>
		<g transform="translate(48,16)">
			<path d="M10,4h-4v4h4v4h-4v-4h4v-4"/>
		</g>
		<g transform="translate(64,16)">
			<path d="M10,8v-4h-4v4h4v4h-4"/>
		</g>
		<!-- 10 .. 19 -->
		<g transform="translate(0,32)">
			<path d="M4,4v8M8,4h4v8h-4v-8"/>
		</g>
		<g transform="translate(16,32)">
			<path d="M4,4v8M12,4v8"/>
		</g>
		<g transform="translate(32,32)">
			<path d="M4,4v8M8,4h4v4h-4v4h4"/>
		</g>
		<g transform="translate(48,32)">
			<path d="M4,4v8M8,4h4v4M8,8h4v4h-4"/>
		</g>
		<g transform="translate(64,32)">
			<path d="M4,4v8M8,4v4h4M12,4v8"/>
		</g>
		<g transform="translate(0,48)">
			<path d="M4,4v8M12,4h-4v4h4v4h-4"/>
		</g>
		<g transform="translate(16,48)">
			<path d="M4,4v8M12,4h-4v8h4v-4h-4"/>
		</g>
		<g transform="translate(32,48)">
			<path d="M4,4v8M8,6v-2h4v8"/>
		</g>
		<g transform="translate(48,48)">
			<path d="M4,4v8M12,4h-4v4h4v4h-4v-4h4v-4"/>
		</g>
		<g transform="translate(64,48)">
			<path d="M4,4v8M12,8v-4h-4v4h4v4h-4"/>
		</g>
		<!-- 20 : + - [] -->
		<g transform="translate(0,64)">
			<path d="M2.5,4h4v4h-4v4h4M9.5,4h4v8h-4v-8"/>
		</g>
		<g transform="translate(16,64)">
			<path d="M7.5,5.5h1v1h-1Z M7.5,9.5h1v1h-1Z" stroke-width="1"/>
		</g>
		<g transform="translate(32,64)">
			<path d="M6,8h4 M8,6v4"/>
		</g>
		<g transform="translate(48,64)">
			<path d="M6,8h4"/>
		</g>
		<g transform="translate(64,64)" stroke="#fff" fill="#fff">
			<path d="M1,3h14v10h-14Z"/>
		</g>
	</g>
</svg>
